<svg xmlns="http://www.w3.org/2000/svg" width="134" height="30" viewBox="0 0 134 30">
    <title>YOOtheme</title>
    <path d="M89.5,12.639a4.035,4.035,0,1,0-8.066-.254c0,.085,0,.169,0,.254Zm-8.066,2.278c0,2.46,1.334,4.647,4.215,4.647a3.635,3.635,0,0,0,3.821-2.612h3.275c-.758,3.432-3.669,5.345-7.1,5.345-4.912,0-7.672-3.432-7.672-8.261,0-4.465,2.911-8.292,7.581-8.292,4.943,0,7.976,4.465,7.4,9.173Z" fill-rule="evenodd"/>
    <path d="M94.082,6.17h3.275V8.357h.091a5.242,5.242,0,0,1,4.821-2.613,4.439,4.439,0,0,1,4.4,2.613,5.658,5.658,0,0,1,4.913-2.613c3.305,0,5.246,1.458,5.246,5.285V21.872h-3.457V12.7c0-2.491-.152-4.222-2.851-4.222-2.335,0-3.335,1.549-3.335,4.191v9.2h-3.457V11.789c0-2.157-.668-3.311-2.76-3.311-1.789,0-3.427,1.458-3.427,4.07v9.324H94.082Z" fill-rule="evenodd"/>
    <path d="M41.78,1.28a9.527,9.527,0,0,0-8.04,4.01,9.547,9.547,0,0,0-8.05-4.01,9.537,9.537,0,0,0-9.23,6.26V1.77H11.27V13.3c0,2.2-.81,3.5-3.04,3.5s-3.04-1.3-3.04-3.5V1.77H0V14.36a7.813,7.813,0,0,0,1.38,4.71,6.635,6.635,0,0,0,4.13,2.6v8.2h5.44v-8.2a6.628,6.628,0,0,0,5.44-6.11A9.545,9.545,0,0,0,25.69,22a9.547,9.547,0,0,0,8.05-4.01A9.527,9.527,0,0,0,41.78,22c6.12,0,9.98-4.71,9.98-10.36S47.9,1.28,41.78,1.28ZM25.69,16.8c-2.88,0-4.78-1.87-4.78-5.16s1.9-5.16,4.78-5.16,4.79,1.87,4.79,5.16S28.57,16.8,25.69,16.8Zm16.09,0C38.9,16.8,37,14.93,37,11.64s1.9-5.16,4.78-5.16,4.79,1.87,4.79,5.16S44.66,16.8,41.78,16.8Z" fill-rule="evenodd"/>
    <path d="M52.689,6.17H55.3V1.462h3.457V6.17H61.88V8.751H58.754v8.383c0,1.428.121,2.156,1.667,2.156a5.931,5.931,0,0,0,1.456-.121v2.673c-.758.061-1.486.182-2.244.182-3.608,0-4.276-1.4-4.336-4.009V8.751H52.689Z" fill-rule="evenodd"/>
    <path d="M62.847.186H66.3V8.235h.061a5.485,5.485,0,0,1,4.7-2.491c3.4,0,5.55,1.823,5.55,5.346V21.872H73.158V12C73.1,9.541,72.127,8.478,70.1,8.478a3.825,3.825,0,0,0-3.812,3.838c0,.1,0,.195.012.293v9.263H62.847Z" fill-rule="evenodd"/>
    <path d="M125.77,5.74c-4.67,0-7.58,3.83-7.58,8.3,0,4.82,2.75,8.26,7.67,8.26,3.43,0,6.34-1.92,7.1-5.35h-3.28a3.618,3.618,0,0,1-3.82,2.61c-2.88,0-4.21-2.18-4.21-4.64h11.52C133.74,10.21,130.71,5.74,125.77,5.74Zm-4.12,6.9a1.044,1.044,0,0,1,0-.25,4.032,4.032,0,1,1,8.06.25Z" fill-rule="evenodd"/>
</svg>
