<svg xmlns="http://www.w3.org/2000/svg" width="130" height="70" viewBox="0 0 130 70">
    <path d="M10.905,8.008v35.5H32.073v4.48H5.585V8.008Z" opacity="0.99" style="isolation: isolate"/>
    <path d="M35.265,27.58a13.505,13.505,0,0,1,2.688-4.816,12.652,12.652,0,0,1,4.424-3.22,14.69,14.69,0,0,1,6.048-1.176A14.644,14.644,0,0,1,54.5,19.544a12.738,12.738,0,0,1,4.4,3.22,13.536,13.536,0,0,1,2.688,4.816,19.291,19.291,0,0,1,.9,5.963,19.033,19.033,0,0,1-.9,5.937A13.567,13.567,0,0,1,58.9,44.268a12.392,12.392,0,0,1-4.4,3.191,14.943,14.943,0,0,1-6.076,1.148,15.01,15.01,0,0,1-6.048-1.148,12.343,12.343,0,0,1-4.424-3.191,13.537,13.537,0,0,1-2.688-4.788,19,19,0,0,1-.9-5.937A19.261,19.261,0,0,1,35.265,27.58Zm4.843,10.64a9.762,9.762,0,0,0,1.932,3.416,8.381,8.381,0,0,0,2.884,2.1,8.777,8.777,0,0,0,7,0,8.387,8.387,0,0,0,2.884-2.1A9.794,9.794,0,0,0,56.74,38.22a14.419,14.419,0,0,0,.7-4.677,14.4,14.4,0,0,0-.7-4.676,10.11,10.11,0,0,0-1.932-3.443A8.236,8.236,0,0,0,51.924,23.3a8.777,8.777,0,0,0-7,0,8.218,8.218,0,0,0-2.884,2.128,10.086,10.086,0,0,0-1.932,3.443,14.4,14.4,0,0,0-.7,4.676A14.424,14.424,0,0,0,40.108,38.22Z" opacity="0.99" style="isolation: isolate"/>
    <path d="M89.808,56.168Q86.56,59.7,79.617,59.7a19.671,19.671,0,0,1-4.116-.447,12.615,12.615,0,0,1-3.808-1.457,8.854,8.854,0,0,1-2.828-2.631,7.479,7.479,0,0,1-1.232-3.977h4.761a3.514,3.514,0,0,0,.812,2.184,5.941,5.941,0,0,0,1.848,1.457,8.972,8.972,0,0,0,2.38.811,12.859,12.859,0,0,0,2.465.254,8.835,8.835,0,0,0,3.976-.812,7.493,7.493,0,0,0,2.688-2.24A9.269,9.269,0,0,0,88.1,49.394a19.276,19.276,0,0,0,.477-4.424V43.065h-.112a8,8,0,0,1-3.724,3.948,11.574,11.574,0,0,1-5.292,1.26A12.76,12.76,0,0,1,73.8,47.1a11.823,11.823,0,0,1-4.032-3.164,13.456,13.456,0,0,1-2.436-4.648,19.136,19.136,0,0,1-.812-5.627,22.016,22.016,0,0,1,.673-5.293,14.426,14.426,0,0,1,2.239-4.928,12.28,12.28,0,0,1,4.145-3.64A12.891,12.891,0,0,1,79.9,18.369a10.7,10.7,0,0,1,5.04,1.2,8.483,8.483,0,0,1,3.584,3.612h.056V19.04h4.479V45.528Q93.054,52.638,89.808,56.168ZM83.732,43.147a7.816,7.816,0,0,0,2.66-2.575,11.77,11.77,0,0,0,1.483-3.613,17.566,17.566,0,0,0,.477-4.031,15.906,15.906,0,0,0-.448-3.752,10.511,10.511,0,0,0-1.428-3.332,7.439,7.439,0,0,0-2.549-2.38,7.563,7.563,0,0,0-3.808-.9,8.221,8.221,0,0,0-3.92.868,7.634,7.634,0,0,0-2.66,2.324,9.86,9.86,0,0,0-1.512,3.359A16.365,16.365,0,0,0,71.55,33.1a19.894,19.894,0,0,0,.393,3.92,11.147,11.147,0,0,0,1.344,3.557,7.563,7.563,0,0,0,2.52,2.575,7.275,7.275,0,0,0,3.921.98A7.709,7.709,0,0,0,83.732,43.147Z" opacity="0.99" style="isolation: isolate"/>
    <path d="M99.552,27.58a13.49,13.49,0,0,1,2.688-4.816,12.656,12.656,0,0,1,4.425-3.22,16.212,16.212,0,0,1,12.124,0,12.757,12.757,0,0,1,4.4,3.22,13.521,13.521,0,0,1,2.688,4.816,19.291,19.291,0,0,1,.9,5.963,19.033,19.033,0,0,1-.9,5.937,13.567,13.567,0,0,1-2.688,4.788,12.392,12.392,0,0,1-4.4,3.191,16.579,16.579,0,0,1-12.124,0,12.338,12.338,0,0,1-4.425-3.191,13.537,13.537,0,0,1-2.688-4.788,19,19,0,0,1-.9-5.937A19.231,19.231,0,0,1,99.552,27.58ZM104.4,38.22a9.764,9.764,0,0,0,1.933,3.416,8.372,8.372,0,0,0,2.884,2.1,8.777,8.777,0,0,0,7,0,8.387,8.387,0,0,0,2.884-2.1,9.81,9.81,0,0,0,1.932-3.416,14.392,14.392,0,0,0,.7-4.677,14.4,14.4,0,0,0-.7-4.676,10.11,10.11,0,0,0-1.932-3.443,8.227,8.227,0,0,0-2.884-2.128,8.777,8.777,0,0,0-7,0,8.218,8.218,0,0,0-2.884,2.128,10.1,10.1,0,0,0-1.933,3.443,14.4,14.4,0,0,0-.7,4.676A14.37,14.37,0,0,0,104.4,38.22Z" opacity="0.99" style="isolation: isolate"/>
</svg>
