<svg xmlns="http://www.w3.org/2000/svg" width="130" height="70" viewBox="0 0 130 70">
    <path d="M10.905,8.008v35.5H32.073v4.48H5.585V8.008Z" fill="#fff" opacity="0.99" style="isolation: isolate"/>
    <path d="M35.265,27.58a13.505,13.505,0,0,1,2.688-4.816,12.652,12.652,0,0,1,4.424-3.22,14.69,14.69,0,0,1,6.048-1.176A14.644,14.644,0,0,1,54.5,19.544a12.738,12.738,0,0,1,4.4,3.22,13.536,13.536,0,0,1,2.688,4.816,19.291,19.291,0,0,1,.9,5.963,19.044,19.044,0,0,1-.9,5.938A13.563,13.563,0,0,1,58.9,44.268a12.392,12.392,0,0,1-4.4,3.191,14.943,14.943,0,0,1-6.076,1.148,15.01,15.01,0,0,1-6.048-1.148,12.343,12.343,0,0,1-4.424-3.191,13.532,13.532,0,0,1-2.688-4.787,19.01,19.01,0,0,1-.9-5.938A19.261,19.261,0,0,1,35.265,27.58Zm4.843,10.641a9.767,9.767,0,0,0,1.932,3.415,8.381,8.381,0,0,0,2.884,2.1,8.766,8.766,0,0,0,7,0,8.374,8.374,0,0,0,2.884-2.1,9.8,9.8,0,0,0,1.932-3.415,14.43,14.43,0,0,0,.7-4.678,14.4,14.4,0,0,0-.7-4.676,10.11,10.11,0,0,0-1.932-3.443A8.236,8.236,0,0,0,51.924,23.3a8.777,8.777,0,0,0-7,0,8.218,8.218,0,0,0-2.884,2.128,10.086,10.086,0,0,0-1.932,3.443,14.4,14.4,0,0,0-.7,4.676A14.434,14.434,0,0,0,40.108,38.221Z" fill="#fff" opacity="0.99" style="isolation: isolate"/>
    <path d="M89.809,56.168Q86.56,59.7,79.618,59.7a19.664,19.664,0,0,1-4.116-.447,12.625,12.625,0,0,1-3.808-1.457,8.843,8.843,0,0,1-2.828-2.631,7.479,7.479,0,0,1-1.232-3.977H72.4a3.511,3.511,0,0,0,.812,2.184,5.933,5.933,0,0,0,1.849,1.457,8.977,8.977,0,0,0,2.379.811,12.867,12.867,0,0,0,2.465.254,8.839,8.839,0,0,0,3.977-.812,7.493,7.493,0,0,0,2.688-2.24A9.247,9.247,0,0,0,88.105,49.4a19.28,19.28,0,0,0,.478-4.424V43.065h-.112a8,8,0,0,1-3.724,3.949,11.577,11.577,0,0,1-5.292,1.26A12.771,12.771,0,0,1,73.8,47.1a11.822,11.822,0,0,1-4.031-3.164,13.441,13.441,0,0,1-2.437-4.648,19.131,19.131,0,0,1-.812-5.627,22.063,22.063,0,0,1,.672-5.293,14.426,14.426,0,0,1,2.239-4.928,12.284,12.284,0,0,1,4.146-3.64A12.891,12.891,0,0,1,79.9,18.37a10.692,10.692,0,0,1,5.039,1.2,8.477,8.477,0,0,1,3.584,3.612h.057V19.04h4.479V45.527Q93.054,52.639,89.809,56.168ZM83.732,43.146a7.822,7.822,0,0,0,2.66-2.574,11.754,11.754,0,0,0,1.482-3.613,17.56,17.56,0,0,0,.477-4.031,15.9,15.9,0,0,0-.447-3.752,10.533,10.533,0,0,0-1.428-3.332,7.433,7.433,0,0,0-2.55-2.38,7.56,7.56,0,0,0-3.808-.9,8.221,8.221,0,0,0-3.92.868,7.625,7.625,0,0,0-2.66,2.324,9.86,9.86,0,0,0-1.512,3.359,16.365,16.365,0,0,0-.478,3.977,19.878,19.878,0,0,0,.394,3.919,11.153,11.153,0,0,0,1.344,3.558,7.572,7.572,0,0,0,2.52,2.575,7.287,7.287,0,0,0,3.922.979A7.689,7.689,0,0,0,83.732,43.146Z" fill="#fff" opacity="0.99" style="isolation: isolate"/>
    <path d="M99.552,27.58a13.49,13.49,0,0,1,2.688-4.816,12.647,12.647,0,0,1,4.425-3.22,16.212,16.212,0,0,1,12.124,0,12.766,12.766,0,0,1,4.4,3.22,13.551,13.551,0,0,1,2.688,4.816,19.291,19.291,0,0,1,.9,5.963,19.073,19.073,0,0,1-.9,5.938,13.563,13.563,0,0,1-2.688,4.787,12.392,12.392,0,0,1-4.4,3.191,16.579,16.579,0,0,1-12.124,0,12.347,12.347,0,0,1-4.425-3.191,13.517,13.517,0,0,1-2.688-4.787,19.01,19.01,0,0,1-.9-5.938A19.231,19.231,0,0,1,99.552,27.58ZM104.4,38.221a9.753,9.753,0,0,0,1.933,3.415,8.363,8.363,0,0,0,2.884,2.1,8.766,8.766,0,0,0,7,0,8.378,8.378,0,0,0,2.885-2.1,9.83,9.83,0,0,0,1.932-3.415,14.4,14.4,0,0,0,.7-4.678,14.4,14.4,0,0,0-.7-4.676,10.11,10.11,0,0,0-1.932-3.443,8.231,8.231,0,0,0-2.885-2.128,8.777,8.777,0,0,0-7,0,8.227,8.227,0,0,0-2.884,2.128,10.1,10.1,0,0,0-1.933,3.443,14.4,14.4,0,0,0-.7,4.676A14.433,14.433,0,0,0,104.4,38.221Z" fill="#fff" opacity="0.99" style="isolation: isolate"/>
</svg>
