<svg xmlns="http://www.w3.org/2000/svg" xmlns:xlink="http://www.w3.org/1999/xlink" width="134" height="30" viewBox="0 0 134 30">
  <defs>
    <mask id="a" x="62.847" y="0.186" width="13.767" height="21.686" maskUnits="userSpaceOnUse">
      <polygon points="76.615 0.186 62.847 0.186 62.847 21.872 76.615 21.872 76.615 0.186" fill="#fff" fill-rule="evenodd"/>
    </mask>
    <mask id="b" x="118.19" y="5.744" width="15.05" height="16.553" maskUnits="userSpaceOnUse">
      <polygon points="133.24 22.297 133.24 5.744 118.19 5.744 118.19 22.297 133.24 22.297" fill="#fff" fill-rule="evenodd"/>
    </mask>
  </defs>
  <g>
    <path d="M5.19,1.772V13.305C5.19,15.5,6,16.8,8.231,16.8s3.041-1.3,3.041-3.493V1.772h5.19V14.361c0,3.655-1.785,6.5-5.515,7.31v8.2H5.514v-8.2a6.625,6.625,0,0,1-4.135-2.6A7.8,7.8,0,0,1,0,14.361V1.772Z" fill="#222" fill-rule="evenodd"/>
    <path d="M20.909,11.64c0,3.289,1.906,5.158,4.785,5.158s4.784-1.869,4.784-5.158-1.906-5.157-4.784-5.157-4.785,1.868-4.785,5.157m14.759,0C35.668,17.285,31.816,22,25.694,22s-9.975-4.711-9.975-10.356S19.571,1.285,25.694,1.285,35.668,6,35.668,11.64" fill="#222" fill-rule="evenodd"/>
    <path d="M37,11.64C37,14.929,38.9,16.8,41.781,16.8s4.784-1.869,4.784-5.158-1.906-5.157-4.784-5.157S37,8.351,37,11.64m14.759,0C51.755,17.285,47.9,22,41.781,22s-9.974-4.711-9.974-10.356S35.658,1.285,41.781,1.285,51.755,6,51.755,11.64" fill="#222" fill-rule="evenodd"/>
    <path d="M52.689,6.17H55.3V1.462h3.457V6.17h3.123V8.751H58.754v8.383c0,1.428.121,2.156,1.667,2.156a5.919,5.919,0,0,0,1.456-.121v2.673c-.758.061-1.486.182-2.244.182-3.608,0-4.276-1.4-4.336-4.009V8.751H52.689Z" fill="#222" fill-rule="evenodd"/>
    <g mask="url(#a)">
      <path d="M62.847.186H66.3V8.235h.061a5.485,5.485,0,0,1,4.7-2.491c3.4,0,5.55,1.823,5.55,5.346V21.872H73.158V12C73.1,9.541,72.127,8.478,70.1,8.478A3.825,3.825,0,0,0,66.3,12.609v9.263H62.847Z" fill-rule="evenodd"/>
    </g>
    <path d="M89.5,12.639a4.035,4.035,0,1,0-8.066,0Zm-8.066,2.278c0,2.46,1.334,4.647,4.215,4.647a3.635,3.635,0,0,0,3.821-2.612h3.275c-.758,3.432-3.669,5.345-7.1,5.345-4.912,0-7.672-3.432-7.672-8.261,0-4.465,2.911-8.292,7.581-8.292,4.943,0,7.976,4.465,7.4,9.173Z" fill="#222" fill-rule="evenodd"/>
    <path d="M94.082,6.17h3.275V8.357h.091a5.24,5.24,0,0,1,4.821-2.613,4.44,4.44,0,0,1,4.4,2.613,5.657,5.657,0,0,1,4.913-2.613c3.305,0,5.246,1.458,5.246,5.285V21.872h-3.457V12.7c0-2.491-.152-4.222-2.851-4.222-2.335,0-3.335,1.549-3.335,4.191v9.2h-3.457V11.789c0-2.157-.668-3.311-2.76-3.311-1.789,0-3.427,1.458-3.427,4.07v9.324H94.082Z" fill="#222" fill-rule="evenodd"/>
    <g mask="url(#b)">
      <path d="M129.713,12.639a4.035,4.035,0,1,0-8.066,0Zm-8.066,2.278c0,2.46,1.334,4.647,4.215,4.647a3.636,3.636,0,0,0,3.821-2.612h3.275c-.758,3.432-3.669,5.345-7.1,5.345-4.913,0-7.672-3.432-7.672-8.261,0-4.465,2.911-8.292,7.581-8.292,4.943,0,7.975,4.465,7.4,9.173Z" fill-rule="evenodd"/>
    </g>
  </g>
</svg>
