<svg width="350" height="340" viewBox="0 0 350 340" xmlns="http://www.w3.org/2000/svg">
    <polygon points="142.6 273.5 92.4 273.5 64 322 171 322 142.6 273.5" fill="none" stroke="#000" stroke-linecap="round" stroke-linejoin="round" stroke-width="2"/>
    <rect x="102" y="263" width="31" height="10" fill="none" stroke="#000" stroke-width="2"/>
    <rect x="41" y="248" width="102" height="15" fill="none" stroke="#000" stroke-width="2"/>
    <polyline points="186.8 200.4 277.9 25.7 296.8 12.3" fill="none" stroke="#000" stroke-width="2"/>
    <polyline points="89.1 190.6 257 1.5 296.8 12.3 336.9 89" fill="none" stroke="#000" stroke-width="2"/>
    <circle cx="338.4" cy="94.8" r="5.3" fill="none" stroke="#000" stroke-linecap="round" stroke-linejoin="round" stroke-width="2"/>
    <line x1="338.4" y1="207.4" x2="338.4" y2="100.1" fill="none" stroke="#000" stroke-linecap="round" stroke-linejoin="round" stroke-width="2"/>
    <path d="M332.5,228.4a8,8,0,0,0-.5,2.1,6.77,6.77,0,1,0,8.2-6.1,2.36,2.36,0,0,1-1.8-2.3h0v-5.2" fill="none" stroke="#0045d4" stroke-linecap="round" stroke-width="2"/>
    <circle cx="338.5" cy="212.7" r="4.2" fill="none" stroke="#0045d4" stroke-width="2"/>
    <rect x="3" y="191" width="140" height="57" fill="none" stroke="#000" stroke-width="2"/>
    <polygon points="193 201 193 242 179 263 143 263 143 197 193 201" fill="none" stroke="#000" stroke-width="2"/>
    <polygon points="185 243 175 258 160 258 160 243 185 243" fill="none" stroke="#0045d4" stroke-width="2"/>
    <rect x="160" y="209" width="26" height="28" fill="none" stroke="#0045d4" stroke-width="2"/>
    <polyline points="220.2 135.2 139.8 135.2 170.8 199.1" fill="none" stroke="#000" stroke-width="2"/>
    <rect x="57" y="322" width="120" height="17" fill="none" stroke="#000" stroke-linejoin="round" stroke-width="2"/>
    <line x1="257" y1="1.5" x2="334" y2="90.7" fill="none" stroke="#000" stroke-width="2"/>
</svg>
